<svg version="1.1" id="Layer_1" xmlns="http://www.w3.org/2000/svg" xmlns:xlink="http://www.w3.org/1999/xlink" x="0px" y="0px"
	 width="100%" viewBox="0 0 1024 1024" enable-background="new 0 0 1024 1024" xml:space="preserve">
<path fill="#000000" opacity="1.000000" stroke="none" 
	d="
M462.228088,728.688354 
	C526.965271,745.730896 584.124817,733.061951 632.123108,686.125671 
	C655.313843,663.448120 669.447510,635.003174 673.185791,602.917847 
	C678.216187,559.741577 665.891174,521.547180 634.275818,490.501007 
	C631.429260,487.705719 629.249207,487.120575 625.771851,489.568268 
	C616.237854,496.279297 606.312988,502.405273 596.170898,508.176666 
	C591.196960,511.007111 590.895630,513.375916 595.037170,517.503174 
	C607.733093,530.155396 617.843811,544.330994 622.654175,561.925171 
	C631.185547,593.128784 624.199463,620.928040 604.140869,645.648865 
	C585.524963,668.591614 560.281555,679.861694 531.791016,684.173523 
	C506.564758,687.991394 481.855927,685.001160 458.626984,674.149902 
	C435.590454,663.388672 418.845093,646.705017 414.345276,620.614807 
	C411.608521,604.746887 416.383331,590.345581 425.589508,577.317993 
	C434.700500,564.425110 447.636230,556.190552 460.913818,548.445496 
	C493.287933,529.560974 525.715698,510.768005 558.170654,492.022675 
	C573.024841,483.443176 588.154480,475.330963 602.870667,466.524567 
	C621.676697,455.270752 636.856873,440.262512 647.037231,420.667938 
	C665.803833,384.547058 660.095337,350.725677 636.295776,319.242798 
	C620.553040,298.417633 599.608032,284.139618 575.563904,274.257355 
	C572.029053,272.804504 568.533630,271.182373 565.210815,269.301483 
	C556.507996,264.375244 553.119263,257.162170 554.716431,247.547592 
	C555.870239,240.602142 562.098999,235.279556 571.022644,233.382935 
	C574.165466,232.714981 577.312988,232.711563 580.470642,232.710312 
	C639.298950,232.686874 698.127319,232.665527 756.955627,232.693634 
	C771.283997,232.700485 780.696472,241.865875 780.134033,256.249359 
	C779.328064,276.862000 777.762329,297.444611 776.546082,318.041534 
	C775.800781,330.662689 775.099121,343.286407 774.383545,355.909302 
	C772.791809,383.987061 771.356567,412.072296 769.598938,440.142609 
	C768.486755,457.905640 767.315430,475.671631 766.304077,493.444336 
	C764.791504,520.022583 763.076843,546.589294 761.493042,573.163574 
	C760.394287,591.598755 759.429871,610.042053 758.298462,628.475159 
	C757.085571,648.234436 755.728271,667.984863 754.469604,687.741394 
	C753.401062,704.512085 751.883179,721.272644 751.438782,738.060913 
	C750.214905,784.301025 718.100952,822.629761 672.851501,830.979248 
	C667.804565,831.910522 662.633423,832.281616 657.441223,832.279419 
	C561.949402,832.239380 466.455170,831.856567 370.966797,832.432739 
	C324.249359,832.714600 288.212219,801.759949 277.644684,758.034546 
	C275.831360,750.531494 275.343048,742.898560 274.853821,735.289917 
	C273.273956,710.718811 272.263458,686.109741 270.550781,661.548889 
	C268.501740,632.164795 267.257050,602.741211 265.548828,573.341858 
	C263.937805,545.614868 261.678833,517.926025 259.869965,490.209686 
	C258.645721,471.451294 258.077850,452.644196 256.555298,433.912598 
	C254.195541,404.880951 252.961945,375.785156 251.002258,346.732208 
	C249.960587,331.289093 249.454391,315.810272 248.656128,300.350189 
	C247.944031,286.558960 247.449600,272.748138 246.339279,258.987946 
	C244.950089,241.771545 252.832382,232.715256 270.056580,232.706436 
	C328.384949,232.676559 386.713318,232.681854 445.041687,232.697861 
	C453.575378,232.700211 460.195221,236.075012 464.106293,243.960861 
	C467.755188,251.318176 466.631165,258.177277 461.815521,264.569855 
	C459.218323,268.017578 455.446411,269.913544 451.609253,271.537872 
	C437.017853,277.714539 422.504059,284.076111 409.625916,293.464111 
	C375.416504,318.402313 353.105316,350.849335 347.244995,393.481781 
	C341.981934,431.768921 352.257111,465.637146 376.550201,495.440399 
	C381.383545,501.370148 381.389740,501.253998 387.224640,496.368317 
	C395.171997,489.713898 404.004669,484.353363 412.869873,479.036346 
	C419.055206,475.326660 419.359619,473.330536 414.987976,467.686127 
	C402.911438,452.093658 394.147461,435.088989 393.709198,414.891113 
	C392.878906,376.626526 410.597809,348.651733 442.526703,329.061920 
	C454.662354,321.616150 467.946014,316.708435 482.114746,314.523743 
	C486.108521,313.907959 488.350342,311.994507 488.357483,307.644409 
	C488.379303,294.318604 488.639404,280.993134 488.653717,267.667358 
	C488.698822,225.671005 488.648987,183.674515 488.694519,141.678146 
	C488.705475,131.568314 494.733063,123.383080 503.641998,120.997765 
	C512.803894,118.544716 523.112854,122.628021 527.858826,130.790619 
	C530.605957,135.515427 531.308960,140.767746 531.307434,146.186951 
	C531.292725,199.182419 531.320618,252.177902 531.339844,305.173370 
	C531.342529,312.497742 531.362183,312.451996 538.631836,314.172119 
	C557.003235,318.519012 574.316345,325.157196 588.477173,338.178711 
	C599.995117,348.770020 607.478882,361.704376 606.962524,377.633789 
	C606.444458,393.619141 598.801697,406.678802 586.512878,416.734894 
	C573.816467,427.124512 559.074341,434.373077 544.988342,442.587921 
	C502.106689,467.596100 459.055542,492.336426 416.928009,518.589111 
	C389.093292,535.934875 371.225342,561.020569 364.940552,593.581787 
	C359.170349,623.476929 366.818970,650.450378 384.522064,674.616028 
	C404.082123,701.316467 430.403015,718.711975 462.228088,728.688354 
M711.658020,741.402466 
	C699.149963,767.368225 678.098877,780.928528 649.672119,781.074097 
	C559.036011,781.538391 468.396057,781.270508 377.757599,781.310486 
	C372.573425,781.312805 367.454559,780.691528 362.384521,779.801758 
	C339.544403,775.793274 325.126556,761.229004 314.835480,741.569702 
	C314.203308,740.362122 314.304138,738.547668 312.023224,738.384827 
	C310.285767,743.585815 311.808167,748.649048 313.011902,753.493225 
	C319.950989,781.418396 346.071503,801.664429 374.874847,801.670349 
	C465.180115,801.688965 555.485413,801.681396 645.790649,801.684143 
	C650.780151,801.684326 655.720276,801.450623 660.703308,800.768250 
	C686.071472,797.294128 709.243530,775.357788 713.778870,750.255615 
	C714.449036,746.546875 715.340027,742.885193 714.010559,739.211609 
	C712.632080,739.262817 712.367493,740.107849 711.658020,741.402466 
M579.227295,553.226135 
	C559.659668,544.668213 545.449036,552.356873 538.695251,575.221619 
	C536.119812,575.473816 534.423828,573.705139 532.539917,572.434021 
	C526.196655,568.153931 519.776550,563.975830 513.600525,559.464722 
	C510.297333,557.052002 507.415344,557.054871 504.006409,559.066650 
	C495.557648,564.052734 486.980408,568.820679 478.504028,573.760803 
	C476.367340,575.006104 474.093536,576.080200 472.429108,578.063660 
	C468.309845,582.972595 468.470734,584.733337 473.800598,588.303284 
	C484.030670,595.155334 494.207672,602.094543 504.592804,608.705261 
	C515.808777,615.844788 526.932373,623.198303 539.963379,626.897949 
	C556.090393,631.476685 571.255676,630.632080 584.597473,619.326782 
	C606.734131,600.569153 604.284058,566.711975 579.227295,553.226135 
M532.236511,410.688049 
	C534.867432,409.018677 537.867615,407.887970 539.944397,405.750549 
	C539.942322,403.813202 538.725281,403.120270 537.635010,402.383301 
	C524.804871,393.710693 512.062195,384.903107 499.085144,376.455750 
	C492.375549,372.088196 485.021912,368.913300 477.209106,366.875244 
	C455.725891,361.271088 435.441620,369.681152 425.287476,388.481476 
	C413.098755,411.048889 423.625275,438.003540 446.999939,444.079163 
	C463.144257,448.275421 478.051575,438.041229 479.698242,421.637268 
	C479.778107,420.841309 479.697174,419.953308 481.255341,419.195648 
	C485.597717,422.106720 490.399567,425.021729 494.835297,428.415222 
	C497.438660,430.406860 499.270721,430.077362 501.877106,428.497070 
	C511.701019,422.540619 521.684143,416.846863 532.236511,410.688049 
z"/>
<path fill="#000000" opacity="1.000000" stroke="none" 
	d="
M410.687714,865.652161 
	C411.683777,864.293335 412.429108,863.187744 413.270447,862.160828 
	C414.409485,860.770325 415.887848,860.063416 417.680359,860.615051 
	C419.400757,861.144470 419.850800,862.796082 419.879608,864.218933 
	C420.037720,872.028442 420.122925,879.843079 419.997955,887.652222 
	C419.962036,889.896179 418.784119,892.031555 416.146393,892.098633 
	C413.275024,892.171631 412.028717,890.111694 411.898376,887.542236 
	C411.731934,884.261414 411.857971,880.965698 411.857971,877.178711 
	C409.102692,878.038391 408.165283,879.835693 407.221405,881.462708 
	C405.365784,884.661255 403.561371,884.929321 401.258179,881.875977 
	C400.193604,880.464600 399.271240,878.762329 396.977905,878.129456 
	C395.541321,880.912170 396.463715,883.913757 396.201416,886.753540 
	C395.944458,889.535278 395.566101,892.437866 392.000946,892.397949 
	C388.527039,892.359070 387.819000,889.509705 387.778229,886.716309 
	C387.676331,879.733826 387.701172,872.748596 387.762207,865.765259 
	C387.779846,863.750183 388.052521,861.632751 390.325958,860.811279 
	C392.521851,860.017761 394.166718,861.140503 395.546143,862.769653 
	C396.405487,863.784607 397.288269,864.779724 398.145294,865.796631 
	C404.102234,872.865112 404.100983,872.866150 410.687714,865.652161 
z"/>
<path fill="#000000" opacity="1.000000" stroke="none" 
	d="
M431.648804,876.046570 
	C432.308594,866.317749 439.673889,859.190552 448.085693,859.697510 
	C457.166107,860.244751 464.342804,867.541077 464.272858,876.154602 
	C464.196106,885.607971 457.369110,892.297852 447.732635,892.362671 
	C438.438049,892.425110 432.002533,886.072693 431.648804,876.046570 
M440.362671,877.852905 
	C442.940002,883.412048 446.244415,885.449829 450.095062,883.854614 
	C454.147522,882.175720 456.241394,878.184631 455.114532,874.205811 
	C453.937500,870.049744 451.172394,867.569763 446.860229,867.535217 
	C443.001312,867.504272 440.336395,871.623962 440.362671,877.852905 
z"/>
<path fill="#000000" opacity="1.000000" stroke="none" 
	d="
M477.503540,886.362793 
	C471.866058,877.075745 473.936096,866.829895 482.066162,862.258118 
	C490.236908,857.663269 500.339050,860.500671 504.806427,868.645081 
	C508.408051,875.211243 506.577515,884.373291 500.748230,888.956726 
	C494.059601,894.215759 484.586365,893.264160 477.503540,886.362793 
M496.996948,871.606995 
	C494.564880,869.061646 492.177460,866.416077 488.074127,868.051758 
	C483.678955,869.803772 481.207458,874.969849 482.862061,878.970703 
	C484.537048,883.020813 489.273041,885.326233 492.911957,883.862854 
	C497.823639,881.887512 499.571411,877.379761 496.996948,871.606995 
z"/>
<path fill="#000000" opacity="1.000000" stroke="none" 
	d="
M551.854980,873.039368 
	C551.865356,870.050720 551.777893,867.547058 551.925171,865.057312 
	C552.087646,862.309753 553.241394,859.932678 556.332703,860.041931 
	C559.423584,860.151184 560.334229,862.523254 560.323364,865.344299 
	C560.310669,868.623352 559.543152,872.104126 564.981201,872.076904 
	C569.575012,872.053894 571.940063,870.704041 571.634094,865.848206 
	C571.531433,864.218445 571.411926,862.462036 572.918396,861.230835 
	C574.017334,860.332642 575.258789,859.983887 576.644043,860.403015 
	C578.483154,860.959656 579.353882,862.297546 579.357971,864.144592 
	C579.376160,872.296875 579.398071,880.449707 579.310608,888.601257 
	C579.286194,890.874146 578.016968,892.429688 575.622314,892.510376 
	C573.222168,892.591248 572.036987,891.050293 571.623901,888.853760 
	C571.471069,888.041260 571.519836,887.192993 571.426636,886.366699 
	C570.764648,880.499390 568.005127,878.854309 562.356201,880.763184 
	C561.000427,881.221252 560.459045,881.967163 560.412170,883.252258 
	C560.363586,884.583191 560.336426,885.915588 560.334229,887.247437 
	C560.329956,889.808289 559.661072,892.079224 556.722229,892.323792 
	C553.458679,892.595459 552.337891,890.144226 552.171997,887.506409 
	C551.879700,882.859619 551.945068,878.190369 551.854980,873.039368 
z"/>
<path fill="#000000" opacity="1.000000" stroke="none" 
	d="
M625.218506,883.956116 
	C627.646484,884.048889 629.653748,884.013062 631.621277,884.275208 
	C633.604919,884.539429 635.075500,885.659058 635.137268,887.837769 
	C635.202148,890.129272 633.957825,891.970886 631.745178,892.063599 
	C626.274414,892.292908 620.769470,892.333740 615.311157,891.964111 
	C612.628174,891.782410 611.679260,889.420898 611.687195,886.792847 
	C611.708862,879.639038 611.710083,872.484924 611.661987,865.331299 
	C611.641602,862.299927 613.029663,860.560120 616.063110,860.457642 
	C621.044312,860.289246 626.031311,860.181702 631.014282,860.227051 
	C633.218872,860.247131 634.925232,861.390503 635.021362,863.818726 
	C635.115540,866.197632 633.452209,867.609741 631.416687,867.974670 
	C628.827332,868.438843 626.132446,868.309692 623.483887,868.450989 
	C621.919678,868.534424 620.251770,868.737549 620.401123,870.807068 
	C620.531250,872.610229 622.165527,872.498718 623.481079,872.557678 
	C625.142517,872.632202 626.807434,872.627747 628.470032,872.682007 
	C630.818542,872.758606 632.318848,873.822021 632.216797,876.328003 
	C632.122620,878.639954 630.795227,879.862000 628.488708,880.269836 
	C625.852661,880.735901 622.830383,879.207336 620.517639,881.611633 
	C620.918213,884.523560 623.116089,883.733582 625.218506,883.956116 
z"/>
<path fill="#000000" opacity="1.000000" stroke="none" 
	d="
M655.539551,870.945312 
	C658.057739,871.752625 660.331604,872.262878 662.536804,872.983276 
	C666.421387,874.252319 669.503845,876.610046 670.029907,880.856506 
	C670.577759,885.278259 668.273193,888.583130 664.501770,890.702637 
	C659.634583,893.437866 654.570007,893.278320 649.679443,890.810364 
	C647.465881,889.693359 644.932678,887.999634 646.270874,885.033691 
	C647.626038,882.030273 650.503906,882.185425 653.180603,883.334534 
	C655.964905,884.529846 658.661743,885.814514 661.207520,882.673645 
	C659.880371,879.736755 657.084412,879.952820 654.827576,879.298767 
	C650.331543,877.995667 646.138123,876.451111 645.721008,870.828430 
	C645.346619,865.781067 647.894958,862.638489 652.407410,860.885437 
	C657.055542,859.079773 664.346069,860.401367 666.880371,863.478394 
	C668.957764,866.000610 667.999268,867.759216 665.342346,868.916382 
	C663.348816,869.784607 661.460205,868.764893 659.507629,868.489685 
	C657.805054,868.249695 654.989624,866.880615 655.539551,870.945312 
z"/>
<path fill="#000000" opacity="1.000000" stroke="none" 
	d="
M361.777954,879.339355 
	C357.173798,877.517822 352.886810,875.809204 352.758057,870.190552 
	C352.623108,864.302917 358.604614,859.273804 365.098602,860.001099 
	C367.204010,860.236877 369.346649,860.939087 371.261261,861.864380 
	C373.343414,862.870789 375.735199,864.372986 374.502167,867.179871 
	C373.331238,869.845398 370.891815,869.435791 368.462280,868.614929 
	C364.210785,867.178589 364.180725,867.267578 361.787598,869.928589 
	C363.359314,872.514465 366.249359,872.525208 368.680634,873.294617 
	C373.283508,874.751282 376.273346,877.473145 376.231750,882.553467 
	C376.196686,886.838928 372.547943,891.026367 367.958771,892.022034 
	C363.545349,892.979492 359.336060,892.204712 355.579163,889.609497 
	C353.698364,888.310120 352.085052,886.682556 353.683655,884.230042 
	C355.041840,882.146362 357.014679,881.774780 359.362152,882.743225 
	C361.956421,883.813354 364.563202,886.050720 367.638153,883.204407 
	C366.768768,880.357666 364.010651,880.524475 361.777954,879.339355 
z"/>
<path fill="#000000" opacity="1.000000" stroke="none" 
	d="
M524.687012,882.875854 
	C524.686951,880.400146 524.580750,878.396667 524.709351,876.408386 
	C525.007202,871.803345 525.121826,867.626343 518.414124,868.178345 
	C516.200623,868.360474 514.836365,866.348694 514.921082,864.114807 
	C515.012451,861.705444 516.766113,860.680481 519.016663,860.662781 
	C525.338379,860.613037 531.660645,860.640198 537.982727,860.635925 
	C540.560486,860.634155 542.161133,861.844482 542.189453,864.479736 
	C542.215271,866.883606 540.647583,868.339905 538.398438,868.210876 
	C533.493530,867.929321 533.078674,870.835815 533.216858,874.575684 
	C533.358093,878.396973 533.300720,882.229187 533.216919,886.054138 
	C533.151428,889.044067 532.543579,892.192078 528.826660,892.075745 
	C525.197998,891.962219 524.608948,888.921631 524.694458,885.850586 
	C524.717651,885.019409 524.691101,884.186890 524.687012,882.875854 
z"/>
<path fill="#000000" opacity="1.000000" stroke="none" 
	d="
M599.966858,881.860474 
	C599.988525,884.661438 600.166260,887.006042 599.379517,889.259460 
	C598.704773,891.191833 597.368652,892.358643 595.269714,892.200745 
	C593.161682,892.041992 591.923645,890.683411 591.707275,888.653442 
	C590.823303,880.359436 590.865662,872.044373 591.449524,863.734436 
	C591.632141,861.135742 593.378296,859.768372 595.812988,859.952515 
	C598.314758,860.141663 599.488586,861.950256 599.547607,864.447876 
	C599.681091,870.094238 599.825378,875.740295 599.966858,881.860474 
z"/>
</svg>